<svg xmlns="http://www.w3.org/2000/svg" width="24" height="24" viewBox="0 0 24 24">
  <path fill="#000" d="M6.83 6.9a3.21 3.21 0 0 1 0-4.5 3.1 3.1 0 0 1 4.43 0l.74.75.74-.75a3.1 3.1 0 0 1 4.43 0 3.21 3.21 0 0 1 0 4.5l-4.23 4.3a1.3 1.3 0 0 1-1.87 0Zm16.85 8.3c.54.75.38 1.8-.36 2.34l-5.27 3.89a5.67 5.67 0 0 1-3.37 1.1H1.33C.6 22.53 0 21.93 0 21.2v-2.67c0-.74.6-1.33 1.33-1.33h1.54l1.87-1.5a5.32 5.32 0 0 1 3.33-1.17h6.6a1.33 1.33 0 1 1 0 2.67h-3.34a.67.67 0 0 0 0 1.33h5.03l4.99-3.67a1.66 1.66 0 0 1 2.33.35Zm-15.61 2h-.04.04Z"/>
</svg>
