<svg xmlns="http://www.w3.org/2000/svg" width="24" height="24" viewBox="0 0 24 24">
  <path d="M12 2.5a1 1 0 0 0-1 1v.46c-.3.08-.58.19-.84.34A2.25 2.25 0 0 0 9 6.28c0 .92.55 1.5 1.1 1.84.48.28 1.08.46 1.53.6l.08.02c.53.16.89.28 1.12.43.17.1.17.15.17.2 0 .1-.02.15-.03.17a.38.38 0 0 1-.14.12c-.17.1-.46.18-.8.17a5.05 5.05 0 0 1-1.4-.34l-.31-.1a1 1 0 1 0-.63 1.9l.25.08c.3.1.67.22 1.06.32v.47a1 1 0 1 0 2 0v-.44c.3-.07.61-.2.89-.36A2.29 2.29 0 0 0 15 9.34a2.19 2.19 0 0 0-1.1-1.88 6.5 6.5 0 0 0-1.58-.63l-.04-.01c-.54-.17-.9-.28-1.14-.43-.1-.05-.13-.1-.14-.1v-.03c0-.07.02-.1.04-.12a.48.48 0 0 1 .14-.12c.2-.11.5-.19.8-.18.39 0 .81.08 1.27.2a1 1 0 0 0 1.22-.7 1 1 0 0 0-.7-1.23L13 3.94V3.5a1 1 0 0 0-1-1zM9.38 16.05c-.8 0-1.6.28-2.22.78l-1.25 1H4.89c-.5 0-.89.4-.89.9v1.77c0 .5.4.89.89.89h8.9c.8 0 1.6-.26 2.24-.74l3.52-2.59a1.11 1.11 0 1 0-1.32-1.79l-3.32 2.45h-3.35a.45.45 0 0 1-.45-.44c0-.25.2-.45.45-.45h2.22a.89.89 0 1 0 0-1.78h-4.4z"/>
</svg>
