<svg xmlns="http://www.w3.org/2000/svg" width="24" height="24" viewBox="0 0 24 24">
  <path d="M7.5 2.5C6.67 2.5 6 3.17 6 4v7.5A1.5 1.5 0 0 0 7.5 13h9c.83 0 1.5-.67 1.5-1.5V4c0-.83-.67-1.5-1.5-1.5h-9zM8.63 4a1.13 1.13 0 1 1 0 2.25 1.13 1.13 0 1 1 0-2.25zm4.39 2.26a.56.56 0 0 1 .57.24l2.81 4.1a.58.58 0 0 1 .04.59c-.1.18-.3.3-.5.3H8.06a.56.56 0 0 1-.44-.91l1.5-1.88a.56.56 0 0 1 .88 0l.62.79 2.04-2.99a.56.56 0 0 1 .36-.24zm5.88 9.77c-.22 0-.45.07-.67.24l-3.32 2.45h-3.35a.45.45 0 0 1-.45-.44c0-.25.2-.45.45-.45h2.22c1.19 0 1.19-1.78 0-1.78h-4.4c-.8 0-1.6.28-2.22.78l-1.25 1H4.89c-.5 0-.89.4-.89.9v1.77c0 .5.4.9.9.9h8.89c.8 0 1.6-.27 2.24-.75l3.52-2.59c.98-.71.28-2.03-.65-2.03z"/>
</svg>
