<svg xmlns="http://www.w3.org/2000/svg" xml:space="preserve" width="24" height="24"><path d="M8.33 2.5a4.33 4.33 0 1 0 1.58 8.36L9.3 9.3a2.65 2.65 0 0 1-3.63-2.47 2.66 2.66 0 0 1 5.23-.67h.01l.6 1.78a4.33 4.33 0 1 0 2.61-5.14l.6 1.55a2.65 2.65 0 0 1 3.64 2.48 2.66 2.66 0 0 1-5.24.66v-.03l-.02-.03-.64-1.9v.01A4.33 4.33 0 0 0 8.33 2.5zM18.9 16.03c-.22 0-.45.07-.67.24l-3.32 2.45h-3.35a.45.45 0 0 1-.45-.44c0-.25.2-.45.45-.45h2.22c1.19 0 1.19-1.78 0-1.78h-4.4c-.8 0-1.6.28-2.22.78l-1.25 1H4.89c-.5 0-.89.4-.89.9v1.77c0 .5.4.9.9.9h8.89c.8 0 1.6-.27 2.24-.75l3.52-2.59c.98-.7.28-2.03-.65-2.03z"/></svg>